# xmcd CD database file
#
# Track frame offsets:
#	150
#	38625
#	111380
#	206857
#	279657
#
# Disc length: 4477 seconds
#
# Revision: 0
# Processed by: cddbd v1.5.1PL0 Copyright (c) Steve Scherf et al.
# Submitted via: CDex 1.51
#
DISCID=49117b05
DTITLE=Mike Westrbrook - On Duke's Birthday
DYEAR=1989
DGENRE=Jazz
TTITLE0=Checking in at Hotel Le Priere
TTITLE1=On Duke's Birthday 1
TTITLE2=East Stratford Too-Doo
TTITLE3=On Duke's Birthday 2
TTITLE4=Music Is ...
EXTD=YEAR: 1989
EXTT0=
EXTT1=
EXTT2=
EXTT3=
EXTT4=
PLAYORDER=
